<svg width="31" height="32" viewBox="0 0 31 32" fill="none" xmlns="http://www.w3.org/2000/svg">
<path d="M30.72 23.5436V29.5784C30.7203 30.0105 30.5565 30.4265 30.2619 30.7427C29.9674 31.0588 29.5638 31.2513 29.1328 31.2817C28.3869 31.3329 27.7777 31.3601 27.3066 31.3601C12.2249 31.3601 0 19.1352 0 4.05347C0 3.58243 0.0256 2.97315 0.0785066 2.22734C0.108753 1.79631 0.301366 1.39279 0.617478 1.09822C0.933591 0.803646 1.34967 0.639941 1.78176 0.640137H7.81654C8.02822 0.639923 8.23245 0.718403 8.3895 0.860331C8.54657 1.00226 8.64529 1.19751 8.66646 1.40814C8.7057 1.80067 8.74154 2.11299 8.77568 2.35022C9.11485 4.71723 9.80992 7.01937 10.8373 9.17859C10.9995 9.51992 10.8937 9.92782 10.5865 10.1463L6.90346 12.778C9.15533 18.025 13.3368 22.2065 18.5839 24.4584L21.2122 20.7822C21.3196 20.6321 21.4764 20.5243 21.655 20.4778C21.8337 20.4314 22.023 20.449 22.1901 20.5279C24.3491 21.5534 26.6506 22.2468 29.0167 22.5845C29.254 22.6186 29.5663 22.6561 29.9555 22.6936C30.1658 22.7153 30.3606 22.8141 30.5021 22.9711C30.6437 23.1282 30.7219 23.3322 30.7217 23.5436H30.72Z" fill="url(#paint0_linear_228_1649)"/>
<defs>
<linearGradient id="paint0_linear_228_1649" x1="-1.55181e-07" y1="15.9526" x2="30.7217" y2="15.9526" gradientUnits="userSpaceOnUse">
<stop offset="0.140625" stop-color="#B16CEA"/>
<stop offset="0.447917" stop-color="#FF5E69"/>
<stop offset="0.71875" stop-color="#FF8A56"/>
<stop offset="1" stop-color="#FFA84B"/>
</linearGradient>
</defs>
</svg>
